<svg xmlns="http://www.w3.org/2000/svg" width="36" height="36" viewBox="0 0 1024 1024" cursor="pointer" color="#282828">
  <path style="left: -20px;" d="M635.307 156.16l25.77 65.152h226.048v70.101H386.56v-47.616l-68.437 11.136v116.608h68.437v64.598h-68.437v445.525h-70.656V600.661l-61.014 192.171-66.261-0.085 112.299-356.608h-86.144V371.54h101.12v-105.13l-101.12 16.384V217.6l240.17-38.955v42.667h190.038l-25.942-65.152h84.608z m130.986 191.659V492.8h120.832v388.864h-70.57v-318.72h-50.262v167.765h0.214v70.102H507.093v-7.424h-0.213V562.9h-49.792v318.763H386.56V492.8h120.363V347.819h259.413zM699.392 562.9H573.867V730.71h125.525V562.901z m0-144.981H573.867v74.88h125.525v-74.88z"></path>
</svg>