<svg width="266" height="99" viewBox="0 0 266 99" fill="none" xmlns="http://www.w3.org/2000/svg" class="wsc-svg-logo-modao-zh-horizontal-text-currentColor">
<path d="M0.794922 43.3432V1.13572C0.794922 0.641692 1.20308 0.233643 1.69711 0.233643H24.0359C24.5299 0.233643 24.938 0.641692 24.938 1.13572V43.3432C24.938 43.8372 24.5299 44.2453 24.0359 44.2453H1.69711C1.20308 44.2453 0.794922 43.8372 0.794922 43.3432Z" fill="#FF3333"/>
<path d="M40.2539 43.3413V1.13389C40.2539 0.639861 40.662 0.231812 41.156 0.231812H63.4948C63.9889 0.231812 64.397 0.639861 64.397 1.13389V43.3413C64.397 43.8354 63.9889 44.2435 63.4948 44.2435H41.156C40.662 44.2435 40.2539 43.8354 40.2539 43.3413Z" fill="#FF3333"/>
<path d="M106.948 0.231812C107.442 0.231812 107.85 0.639861 107.85 1.13389V34.4703C107.85 37.7781 107.614 41.0645 107.184 44.2435C103.834 68.5155 88.1965 88.8782 66.7384 98.8232C66.2873 99.038 65.7289 98.8232 65.5355 98.3721L56.4282 77.9665C56.2348 77.5154 56.4282 76.9784 56.8792 76.7636C72.7527 69.2887 83.7288 53.1575 83.7288 34.4703V1.13389C83.7288 0.639861 84.1369 0.231812 84.6309 0.231812H106.948Z" fill="#FF3333"/>
<path d="M208.244 0.72588V8.75924C208.244 9.08143 208.502 9.36073 208.845 9.36073H223.215C222.85 15.2676 222.163 27.0599 221.991 30.2603C221.647 36.8546 220.036 42.1171 217.094 46.3486C214.473 50.086 210.865 52.9429 206.118 55.0049C205.817 55.1338 205.666 55.4989 205.817 55.7996L209.125 62.9953C209.254 63.296 209.597 63.4248 209.898 63.296C222.678 57.8187 230.132 46.7567 231.012 31.9143L232.344 9.38212H255.929V62.0287C255.929 62.3509 256.186 62.6302 256.509 62.6302H264.542C264.864 62.6302 265.144 62.3724 265.144 62.0287V0.768881C265.144 0.446687 264.886 0.167389 264.542 0.167389H208.845C208.502 0.14591 208.244 0.403686 208.244 0.72588Z" fill="currentColor"/>
<path d="M191.454 33.547H166.581V30.8192H190.638C190.96 30.8192 191.239 30.5614 191.239 30.2177V25.3848C191.239 25.0626 190.981 24.7834 190.638 24.7834H166.581V22.0554H190.638C190.96 22.0554 191.239 21.7977 191.239 21.4541V0.726232C191.239 0.404038 190.981 0.14624 190.638 0.14624H134.855C134.533 0.14624 134.275 0.404038 134.275 0.726232V21.4541C134.275 21.7763 134.533 22.0554 134.855 22.0554H158.912V24.7834H134.855C134.533 24.7834 134.275 25.0411 134.275 25.3848V30.2177C134.275 30.5399 134.533 30.8192 134.855 30.8192H158.912V33.547H134.039C133.717 33.547 133.438 33.8049 133.438 34.1485V38.9814C133.438 39.3036 133.695 39.5613 134.039 39.5613H191.454C191.776 39.5613 192.055 39.3036 192.055 38.9814V34.1485C192.055 33.8049 191.776 33.547 191.454 33.547ZM183.549 16.0198H166.581V6.16053H183.549V16.0198ZM141.943 6.16053H158.912V16.0198H141.943V6.16053Z" fill="currentColor"/>
<path d="M166.576 54.3607H191.17C191.493 54.3607 191.772 54.1029 191.772 53.7592V48.9263C191.772 48.6041 191.514 48.3249 191.17 48.3249H166.576V41.7951C166.576 41.4729 166.319 41.1936 165.975 41.1936H159.488C159.166 41.1936 158.887 41.4514 158.887 41.7951V48.3249H134.292C133.97 48.3249 133.691 48.5826 133.691 48.9263V53.7592C133.691 54.0814 133.949 54.3607 134.292 54.3607H158.908V56.5515H132.424C132.102 56.5515 131.822 56.8093 131.822 57.153V61.9859C131.822 62.3081 132.08 62.5873 132.424 62.5873H193.061C193.383 62.5873 193.662 62.3296 193.662 61.9859V57.153C193.662 56.8308 193.404 56.5515 193.061 56.5515H166.576V54.3607Z" fill="currentColor"/>
<path d="M152.638 8.3512H146.666C146.473 8.3512 146.344 8.52305 146.387 8.69489L147.354 13.5707C147.375 13.6996 147.504 13.807 147.633 13.807H153.604C153.798 13.807 153.927 13.6351 153.884 13.4633L152.917 8.58749C152.917 8.45862 152.788 8.3512 152.638 8.3512Z" fill="currentColor"/>
<path d="M178.131 13.5921L179.098 8.71625C179.14 8.52294 178.99 8.37256 178.818 8.37256H172.847C172.697 8.37256 172.589 8.47998 172.568 8.60886L171.601 13.4847C171.558 13.678 171.709 13.8284 171.88 13.8284H177.852C177.981 13.8284 178.088 13.7424 178.131 13.5921Z" fill="currentColor"/>
<path d="M184.385 46.6923H190.356C190.55 46.6923 190.678 46.5204 190.636 46.3486L189.669 41.4727C189.647 41.3439 189.519 41.2365 189.39 41.2365H183.397C183.204 41.2365 183.075 41.4083 183.118 41.5801L184.084 46.456C184.127 46.5848 184.235 46.6923 184.385 46.6923Z" fill="currentColor"/>
<path d="M172.848 46.6923H178.819C179.012 46.6923 179.141 46.5204 179.098 46.3486L178.132 41.4727C178.11 41.3439 177.981 41.2365 177.853 41.2365H171.881C171.688 41.2365 171.559 41.4083 171.602 41.5801L172.569 46.456C172.59 46.5848 172.697 46.6923 172.848 46.6923Z" fill="currentColor"/>
<path d="M141.402 46.456L142.369 41.5801C142.412 41.3868 142.262 41.2365 142.09 41.2365H136.118C135.968 41.2365 135.861 41.3439 135.839 41.4727L134.851 46.3486C134.808 46.5419 134.959 46.6923 135.13 46.6923H141.102C141.252 46.6923 141.359 46.5848 141.402 46.456Z" fill="currentColor"/>
<path d="M152.938 46.456L153.904 41.5801C153.947 41.3868 153.797 41.2365 153.625 41.2365H147.654C147.503 41.2365 147.396 41.3439 147.374 41.4727L146.386 46.3486C146.343 46.5419 146.494 46.6923 146.666 46.6923H152.637C152.787 46.6923 152.916 46.5848 152.938 46.456Z" fill="currentColor"/>
<path d="M241.412 86.215C238.233 86.215 235.677 83.4656 236.042 80.2007C236.321 77.6876 238.383 75.6685 240.896 75.4322C242.486 75.2818 243.946 75.8404 245.02 76.807C245.128 76.9144 245.321 76.9144 245.428 76.807L246.975 75.2604C247.104 75.153 247.104 74.9382 246.975 74.8308C245.278 73.2628 242.915 72.4037 240.359 72.7258C236.665 73.1984 233.722 76.2055 233.292 79.8785C232.734 84.8188 236.579 89.0073 241.412 89.0073C243.56 89.0073 245.514 88.1696 246.975 86.8164C247.104 86.709 247.104 86.5157 246.975 86.3868L245.428 84.8403C245.321 84.7329 245.149 84.7329 245.02 84.8403C244.054 85.6995 242.786 86.215 241.412 86.215Z" fill="currentColor"/>
<path d="M259.583 86.215C256.405 86.215 253.848 83.4656 254.214 80.2007C254.493 77.6876 256.555 75.6685 259.068 75.4322C260.657 75.2818 262.118 75.8404 263.192 76.807C263.299 76.9144 263.493 76.9144 263.6 76.807L265.147 75.2604C265.276 75.153 265.276 74.9382 265.147 74.8308C263.45 73.2628 261.087 72.4037 258.531 72.7258C254.837 73.1984 251.894 76.2055 251.464 79.8785C250.906 84.8188 254.751 89.0073 259.583 89.0073C261.731 89.0073 263.686 88.1696 265.147 86.8164C265.276 86.709 265.276 86.5157 265.147 86.3868L263.6 84.8403C263.493 84.7329 263.321 84.7329 263.192 84.8403C262.247 85.6995 260.98 86.215 259.583 86.215Z" fill="currentColor"/>
<path d="M229.298 88.9857H227.279C227.107 88.9857 226.979 88.8568 226.979 88.685V86.6659C226.979 86.4941 227.107 86.3652 227.279 86.3652H229.298C229.47 86.3652 229.599 86.4941 229.599 86.6659V88.685C229.578 88.8568 229.449 88.9857 229.298 88.9857Z" fill="currentColor"/>
<path d="M215.401 72.6614C210.868 72.6614 207.195 76.3344 207.195 80.8666C207.195 85.3988 210.868 89.0718 215.401 89.0718C219.933 89.0718 223.606 85.3988 223.606 80.8666C223.606 76.3344 219.933 72.6614 215.401 72.6614ZM215.401 86.2794C212.415 86.2794 209.988 83.8523 209.988 80.8666C209.988 77.881 212.415 75.4537 215.401 75.4537C218.386 75.4537 220.813 77.881 220.813 80.8666C220.813 83.8523 218.386 86.2794 215.401 86.2794Z" fill="currentColor"/>
<path d="M179.485 72.8976H173.6C173.428 72.8976 173.299 73.0264 173.299 73.1983V88.4918C173.299 88.6636 173.428 88.7925 173.6 88.7925H179.7C184.21 88.7925 187.862 85.0336 187.647 80.4584C187.432 76.184 183.759 72.8976 179.485 72.8976ZM179.7 86.2364H175.919V75.4966H179.7C182.535 75.4966 184.984 78.0097 184.984 80.845C184.984 83.6803 182.535 86.2364 179.7 86.2364Z" fill="currentColor"/>
<path d="M202.619 89.0504H204.853C205.068 89.0504 205.197 88.8355 205.132 88.6422L198.409 72.8333C198.366 72.7259 198.259 72.6614 198.13 72.6614H196.584C196.455 72.6614 196.369 72.7259 196.304 72.8333L189.581 88.6422C189.495 88.8355 189.646 89.0504 189.86 89.0504H192.094C192.223 89.0504 192.309 88.9859 192.374 88.8785L194.285 84.3678H200.471L202.383 88.8785C202.405 88.9859 202.512 89.0504 202.619 89.0504ZM195.338 81.8332L197.357 77.0862L199.376 81.8332H195.338Z" fill="currentColor"/>
<path d="M160.67 72.6395C156.138 72.6395 152.465 76.3126 152.465 80.8448C152.465 85.377 156.138 89.05 160.67 89.05C165.202 89.05 168.875 85.377 168.875 80.8448C168.875 76.3126 165.202 72.6395 160.67 72.6395ZM160.67 86.2791C157.684 86.2791 155.257 83.8519 155.257 80.8663C155.257 77.8806 157.684 75.4534 160.67 75.4534C163.656 75.4534 166.083 77.8806 166.083 80.8663C166.104 83.8519 163.677 86.2791 160.67 86.2791Z" fill="currentColor"/>
<path d="M146.792 72.7255L139.983 79.5345L133.174 72.7255C133.109 72.6611 133.045 72.6395 132.959 72.6395H132.207C132.035 72.6395 131.906 72.7685 131.906 72.9403V88.7492C131.906 88.9211 132.035 89.05 132.207 89.05H134.527C134.699 89.05 134.827 88.9211 134.827 88.7492V78.482L139.768 83.4223C139.875 83.5297 140.069 83.5297 140.176 83.4223L145.116 78.482V88.7492C145.116 88.9211 145.245 89.05 145.417 89.05H147.737C147.909 89.05 148.037 88.9211 148.037 88.7492V72.9403C148.037 72.7685 147.909 72.6395 147.737 72.6395H146.985C146.92 72.6395 146.856 72.6826 146.792 72.7255Z" fill="currentColor"/>
</svg>
