<svg height="100" viewBox="0 0 360 100" width="360" xmlns="http://www.w3.org/2000/svg"><g fill="none" fill-rule="evenodd"><g fill="#242d3e"><path d="m347.482434 70.9060256v2.9334552h2.204935c1.21986 0 1.832342-.4828519 1.832342-1.4485558 0-1.0020475-.612482-1.4848994-1.832342-1.4848994zm3.863741 8.3123217-2.301912-4.1743327h-1.561829v4.1743327h-1.42402v-9.5895429h3.833116c1.898694 0 3.016474 1.1422303 3.016474 2.725777 0 1.3447166-.985076 2.3467641-2.307016 2.6219378l2.342744 4.2418281zm-9.217853-4.7921755c0 2.0352468.67373 3.79532 2.062022 5.2386838 1.393396 1.417404 3.08793 2.1390859 5.124432 2.1390859 2.000775 0 3.695308-.7216819 5.0836-2.1390859 1.388293-1.4433638 2.102855-3.1722852 2.102855-5.2386838 0-2.0715904-.714562-3.7953199-2.102855-5.2075319-1.388292-1.4485558-3.082825-2.1754297-5.0836-2.1754297-2.000774 0-3.695307.7268739-5.088704 2.1754297-1.388292 1.412212-2.09775 3.1359415-2.09775 5.2075319zm-1.429125 0c0-2.4142596.816643-4.48585 2.511176-6.2095795 1.694533-1.7237294 3.731036-2.5855941 6.068675-2.5855941 2.373368 0 4.440494.8618647 6.104403 2.5855941 1.694534 1.7237295 2.5418 3.7953199 2.5418 6.2095795 0 2.4454114-.847266 4.4858501-2.5418 6.1732359-1.694533 1.7237294-3.731035 2.5492504-6.104403 2.5492504-2.373367 0-4.404766-.825521-6.068675-2.5492504-1.663909-1.6873858-2.511176-3.7278245-2.511176-6.1732359z"/><path d="m205.554549 36.8161609c4.343518 0 8.01841 1.6614259 10.922595 4.9375503 2.990953 3.1670932 4.517054 7.3154661 4.501742 12.3464716-.015312 5.0621572-1.495477 9.6051188-4.557886 12.9123949-2.914394 3.1670932-6.573973 4.7765996-10.917491 4.7765996-4.277165 0-7.844872-1.5887385-10.902178-4.8077513-3.047098-3.3332359-4.522158-7.8554297-4.522158-12.9383547.015312-5.0258135 1.546517-9.1793784 4.552782-12.3464717 3.026682-3.2865082 6.594389-4.8804387 10.886866-4.8804387zm21.018339-3.9718465c-4.838608-5.3840585-10.871555-8.1409872-17.955929-8.1409872-6.824069 0-13.597099 4.8492871-17.761976 9.6414626l.015312-8.9613163-12.73452-.0155759-.137808 73.5077148v.9657039l12.800872.0207678.056144-22.9899817c3.86374 4.4183546 9.98856 7.0091407 16.792213 7.0299086 7.492696 0 13.791051-2.720585 18.731739-8.0682998 4.976416-5.3840585 7.508008-12.9850823 7.528424-21.7023766.015312-8.9042048-2.444824-16.0639123-7.334471-21.2870202z"/><path d="m240.395584 36.3317514-.05104 31.0219378c-.020416 6.6924315 1.791509 11.4690311 5.343904 14.1896161 2.215143 1.6977697 5.027456 2.5544424 8.370587 2.5544424 2.56732 0 6.594389-1.0539671 6.594389-1.0539671l-1.138196-11.3080804s-2.939913.9657038-4.363934-.0674954c-1.357668-.9864717-2.02119-3.0995979-2.02119-6.2614991l.05104-29.0749543 11.851525.0155758.020416-10.7836928-11.856629-.0207679.035728-15.492797-12.78556-.0155759-.035728 15.4927971-10.728642-.0155759z"/><path d="m135.453951 9.21104936h-63.0499103l-.0153121 12.84489944h25.2036314l-.1071844 59.9670932v1.1785741l13.3265864.0207678-.051041-61.1456673 24.69323-.0207678z"/><path d="m161.006697 54.43766c-.015312 5.2802193-1.546517 9.6414625-4.573198 12.9695064-3.006266 3.312468-6.752613 4.9894698-11.131859 4.9894698-4.287374-.0155759-8.003097-1.6977697-11.009363-5.0413894-2.934809-3.2553565-4.430286-7.6373675-4.430286-12.9902742 0-5.3477148 1.510789-9.7141499 4.466014-12.9695064 3.006266-3.3072761 6.716885-4.9894699 11.029779-4.9894699 4.35883 0 8.105177 1.6977697 11.111443 5.0465814 3.026681 3.3228519 4.552782 7.689287 4.53747 12.9850823m4.027069-21.2558684c-5.221409-5.4878976-12.326199-8.5148081-19.60963-8.2967459-7.370199 0-13.857404 2.6271298-19.293181 7.8346618-5.486817 5.2438757-8.283818 12.5229982-8.29913 21.6296892-.015312 9.1066911 2.761273 16.3858135 8.232778 21.6452651 5.430673 5.2231079 11.938294 7.8865813 19.308493 7.9073492.280721.0155758.561442.0155758.847267.0155758 6.890421 0 13.714491-3.0009506 18.741947-8.2292504 3.679995-3.8420476 8.074553-10.6435101 8.089865-21.2351006.020416-10.5915905-4.343518-17.4034369-8.018409-21.2714442"/><path d="m285.46915 73.0606874c-4.603823-.0155759-7.594776-2.6842413-7.579464-6.7806947.020416-4.257404 2.934809-6.744351 9.182125-7.8190859l12.78556-2.1961975v.124607c-.035728 9.817989-5.925763 16.6713711-14.332077 16.6713711zm-5.890035-27.569287c0-3.3072761 1.704742-10.5915905 11.131859-10.5915905 3.343131 0 5.241825 1.1474223 6.839382 2.5077148 1.546517 1.303181 2.322327 4.5221938 2.322327 7.1908592v1.2512614l-15.562145 2.4661792c-12.331303 1.9210238-19.400365 8.6601828-19.436093 18.5352834-.015312 5.1192687 1.811926 9.5012797 5.292865 12.7202925 3.429898 3.1670932 8.125593 4.849287 13.668555 4.8648629 6.982294 0 12.224118-2.5544425 15.970466-7.8346618.015312 2.2377331.015312 4.491042.015312 6.5834003h12.979513l.086768-37.9220475c.015312-6.1940037-1.97015-12.185521-5.890035-15.4772212-3.873948-3.2397806-8.937132-4.9012066-16.271603-4.9219744h-.10208c-5.594002 0-11.519764 1.5056673-15.511105 5.0310055-4.695695 4.1276051-7.00271 10.6798537-7.00271 15.7420109z"/><path d="m319.00917 10.0879707-.122496 72.7029617v.3219012l11.484036.0363437.122497-72.7237294v-.3219013z"/></g><path d="m28.1027124 62.6669104c-.2807208.0882633-.5614417.0882633-.8472666 0-.2756169-.0882632-.5052976-.2180621-1.0156992-.7320658l-5.5786896-5.6903839c-.4899855-.4984278-.632898-.7528336-.7196662-1.0383912-.0867683-.2855576-.0867683-.5711152 0-.8566728.0867682-.2855576.2092646-.5191956.7196662-1.0383912l17.5731273-17.8343693c.4899856-.5036197.7349784-.6438026 1.0208033-.7164899.2807208-.0934553.5614417-.0934553.8421626 0 .2807209.0882632.5104016.2128702 1.0208032.7320658l5.5735856 5.6903839c.4950895.4984278.6328979.7476417.7043542 1.0383912.0867682.2855576.0867682.5711152 0 .8566728-.0867683.2855576-.2092647.5191956-.7196663 1.0383912l-17.5731273 17.8343693c-.4695695.4984278-.7196663.6282267-1.0003872.7164899zm39.4489402-20.6484095-18.9767317-19.3556124c-.1735366-.1765265-.3368651-.3374772-.4899856-.4828519l-21.7584204-22.1800366-9.5853422 9.71414991 14.0207321 14.29345519-30.7619048 31.1828885 18.9767317 19.3400366c.2654089.2647897.5257137.5347714.7707065.7684095l21.615508 22.0398537 9.4628458-9.5895429-14.1381245-14.4180622z" fill="#014fd7"/></g></svg>