<svg xmlns="http://www.w3.org/2000/svg" xmlns:xlink="http://www.w3.org/1999/xlink" width="32" height="32" viewBox="0 0 32 32">
    <defs>
        <linearGradient id="a" x1="50%" x2="50%" y1="0%" y2="100%">
            <stop offset="0%" stop-color="#08B1FA"/>
            <stop offset="100%" stop-color="#4F8EFF"/>
        </linearGradient>
        <linearGradient id="c" x1="50%" x2="50%" y1="0%" y2="100%">
            <stop offset="0%" stop-color="#0090FF"/>
            <stop offset="100%" stop-color="#0059FF"/>
        </linearGradient>
        <path id="b" d="M0 0l26 26H0z"/>
        <linearGradient id="d" x1="50%" x2="50%" y1="0%" y2="100%">
            <stop offset="0%" stop-color="#FF3A50"/>
            <stop offset="100%" stop-color="#ED306B"/>
        </linearGradient>
    </defs>
    <g fill="none" fill-rule="evenodd">
        <path d="M0 0h32v32H0z"/>
        <g transform="translate(3 4)">
            <path fill="url(#a)" d="M16.332.005A7.662 7.662 0 0 0 16 2.26C16 5.866 19.134 9 23.26 9a6.476 6.476 0 0 0 2.999-.75c.158.725.241 1.478.241 2.25C26.5 16.299 21.799 21 16 21v5H0V0h16c.111 0 .222.002.332.005z"/>
            <use fill="url(#c)" xlink:href="#b"/>
        </g>
        <circle cx="26" cy="6" r="4" fill="url(#d)"/>
    </g>
</svg>
