<svg width="397" height="57" viewBox="0 0 397 57" fill="none" xmlns="http://www.w3.org/2000/svg">
<g clip-path="url(#clip0)">
<path d="M0 48.0776V43.5776H13.5376C11.6403 40.5776 9.7686 37.8621 7.87129 35.4052L12.5377 32.9483C13.2043 33.7759 14.2299 35.1207 15.5631 37.0345C16.922 38.9483 17.845 40.2931 18.4091 41.1207L13.7427 43.5776H29.1776C31.6133 39.9052 33.7671 36.2845 35.6644 32.7672L41.1255 35.2241C39.1 38.0948 37.1514 40.8621 35.2541 43.6035H48.7917V48.1035H0V48.0776Z" fill="#42B14B"/>
<path d="M47.1508 3.54309H1.6153V8.43102H47.1508V3.54309Z" fill="#42B14B"/>
<path d="M4.43562 13.2155V31.1896H44.3561V13.2155H4.43562ZM38.8949 26.3017H10.1019V18.1293H38.8949V26.3017Z" fill="#42B14B"/>
<path d="M103.07 48.4655C95.6348 46.4224 89.6352 44.3017 85.0458 42.1293C80.3281 44.7155 74.6618 47.1724 68.0469 49.4741C67.7648 48.6466 67.1751 47.5604 66.2265 46.2155C65.688 45.2586 65.2778 44.5862 65.0214 44.1724C71.0979 42.8017 76.1489 40.9655 80.1999 38.6638C76.4309 35.4052 73.0465 31.319 70.0724 26.4052L73.0978 24.7759H67.4315C67.5597 34.2931 65.3291 42.3362 60.7396 48.8793C60.3294 48.4655 59.791 47.7931 59.1244 46.8362C58.1757 45.6207 57.4322 44.7155 56.8937 44.1724C60.6627 39 62.4318 31.5776 62.1498 21.9052V5.56035H81.1742V0.0517273H86.661V5.56035H104.685L103.275 17.4052C103.147 17.4052 102.865 17.4052 102.455 17.4052C100.711 17.1466 99.2756 16.9914 98.1987 16.9914L99.1987 10.4483H86.6354V19.8362H100.814V25.3448C97.7116 30.8017 94.0708 35.2241 89.8916 38.6121C94.7374 40.7845 100.07 42.2845 105.891 43.1121C104.814 45.0517 103.865 46.8104 103.07 48.4655ZM67.4315 10.4741V19.8621H81.1999V10.4741H67.4315ZM94.9682 24.7759H75.3284C78.0206 29.2759 81.2768 32.8707 85.0458 35.5862C89.225 32.4569 92.5324 28.8621 94.9682 24.7759Z" fill="#42B14B"/>
<path d="M113.377 48.6465C111.89 47.1465 110.403 45.6465 108.916 44.1465C113.634 40.6034 116.736 37.0086 118.223 33.3362C119.838 29.6638 120.659 24.2069 120.659 16.9914V1.81033H126.325V18.0258C127.146 31.5 122.838 41.7155 113.377 48.6465ZM144.35 47.2241C138.812 47.4827 136.171 44.8448 136.453 39.2586V1.81033H142.324V38.6379C142.196 41.0948 143.196 42.2586 145.35 42.1034H147.58C150.016 42.2327 151.349 41.0172 151.631 38.431C151.631 37.8879 151.708 36.931 151.836 35.5603C152.093 32.9741 152.298 30.931 152.452 29.431C152.99 29.5603 153.811 29.7672 154.887 30.0517C156.246 30.3362 157.246 30.5431 157.913 30.6724C157.631 34.7586 157.246 38.3534 156.708 41.4827C156.169 45.4396 153.272 47.3276 148.016 47.1983H144.35V47.2241Z" fill="#42B14B"/>
<path d="M194.012 25.4405C195.879 25.4405 197.394 23.9297 197.394 22.064C197.394 20.1982 195.879 18.6874 194.012 18.6874C192.145 18.6874 190.63 20.1982 190.63 22.064C190.63 23.9297 192.145 25.4405 194.012 25.4405Z" fill="currentColor"/>
<path fill-rule="evenodd" clip-rule="evenodd" d="M218.801 3.44307C218.801 2.0938 217.707 1 216.358 1C215.008 1 213.915 2.0938 213.915 3.44307V15.031C210.265 10.8511 204.896 8.18556 198.9 8.18556C187.925 8.18556 179 17.0915 179 28.048C179 39.0046 187.925 47.9105 198.9 47.9105C209.534 47.9105 218.227 39.545 218.757 29.0695H218.801V3.44307ZM198.9 43.0319C190.613 43.0319 183.886 36.3171 183.886 28.048C183.886 19.779 190.613 13.0642 198.9 13.0642C207.188 13.0642 213.915 19.779 213.915 28.048C213.915 36.3166 207.164 43.0319 198.9 43.0319Z" fill="currentColor"/>
<path d="M239.016 25.4405C240.883 25.4405 242.398 23.9297 242.398 22.064C242.398 20.1982 240.883 18.6874 239.016 18.6874C237.149 18.6874 235.634 20.1982 235.634 22.064C235.634 23.9297 237.149 25.4405 239.016 25.4405Z" fill="currentColor"/>
<path fill-rule="evenodd" clip-rule="evenodd" d="M224.076 28.048C224.076 39.0045 233.001 47.9105 243.976 47.9105C254.952 47.9105 263.877 39.0045 263.877 28.048C263.877 17.0914 254.952 8.1855 243.976 8.1855C233.001 8.1855 224.076 17.0914 224.076 28.048ZM228.962 28.048C228.962 19.7789 235.689 13.0641 243.976 13.0641C252.264 13.0641 258.991 19.7789 258.991 28.048C258.991 36.317 252.264 43.0319 243.976 43.0319C235.689 43.0319 228.962 36.317 228.962 28.048Z" fill="currentColor"/>
<path d="M330.42 25.4885C332.287 25.4885 333.802 23.9777 333.802 22.1119C333.802 20.2461 332.287 18.7354 330.42 18.7354C328.553 18.7354 327.038 20.2461 327.038 22.1119C327.038 23.9777 328.553 25.4885 330.42 25.4885Z" fill="currentColor"/>
<path fill-rule="evenodd" clip-rule="evenodd" d="M335.597 47.9586C329.601 47.9586 324.232 45.2931 320.583 41.1132V52.5569C320.583 53.9062 319.489 55 318.14 55C316.79 55 315.697 53.9062 315.697 52.5569V26.9305H315.743C316.343 16.5274 325.012 8.23366 335.597 8.23366C346.572 8.23366 355.497 17.1396 355.497 28.0961C355.497 39.0527 346.572 47.9586 335.597 47.9586ZM335.597 43.08C327.309 43.08 320.583 36.3652 320.583 28.0961C320.583 19.8271 327.309 13.1123 335.597 13.1123C343.885 13.1123 350.611 19.8271 350.611 28.0961C350.611 36.3647 343.861 43.08 335.597 43.08Z" fill="currentColor"/>
<path d="M367.368 12.5993C367.368 11.25 366.274 10.1562 364.925 10.1562C363.576 10.1562 362.482 11.25 362.482 12.5993V42.2953C362.482 43.6445 363.576 44.7383 364.925 44.7383C366.274 44.7383 367.368 43.6445 367.368 42.2953V12.5993Z" fill="currentColor"/>
<path d="M379.408 12.5993C379.408 11.25 378.314 10.1562 376.965 10.1562C375.615 10.1562 374.521 11.25 374.521 12.5993V42.2953C374.521 43.6445 375.615 44.7383 376.965 44.7383C378.314 44.7383 379.408 43.6445 379.408 42.2953V12.5993Z" fill="currentColor"/>
<path d="M283.996 25.4405C285.862 25.4405 287.378 23.9297 287.378 22.064C287.378 20.1982 285.862 18.6874 283.996 18.6874C282.129 18.6874 280.613 20.1982 280.613 22.064C280.613 23.9297 282.129 25.4405 283.996 25.4405Z" fill="currentColor"/>
<path d="M364.925 7.8721C366.792 7.8721 368.307 6.36132 368.307 4.49555C368.307 2.62978 366.792 1.119 364.925 1.119C363.058 1.119 361.543 2.62979 361.543 4.49555C361.543 6.36131 363.058 7.8721 364.925 7.8721Z" fill="currentColor"/>
<path d="M384.983 18.2792C386.85 18.2792 388.365 16.7684 388.365 14.9027C388.365 13.0369 386.85 11.5261 384.983 11.5261C383.116 11.5261 381.601 13.0369 381.601 14.9027C381.601 16.7684 383.116 18.2792 384.983 18.2792Z" fill="currentColor"/>
<path d="M293.64 11.514C293.64 12.7054 294.486 13.6896 295.58 13.93C300.626 16.3582 304.09 21.5 304.09 27.4472C304.09 35.7162 297.364 42.4311 289.076 42.4311C280.788 42.4311 274.062 35.7162 274.062 27.4472C274.062 21.5018 277.549 16.3595 282.571 13.9305C283.695 13.6896 284.512 12.6998 284.512 11.514C284.512 10.2972 283.63 9.29663 282.502 9.08364L282.495 9.08229L282.488 9.08114L282.406 9.59141C282.488 9.08114 282.487 9.08107 282.487 9.08107L282.486 9.08083L282.483 9.08038L282.475 9.07913C282.468 9.07814 282.459 9.07687 282.448 9.0754C282.426 9.07246 282.395 9.06871 282.358 9.06493C282.284 9.0574 282.181 9.04946 282.062 9.04769C281.839 9.04437 281.503 9.06111 281.201 9.18447C281.079 9.23325 281.033 9.25271 281.008 9.2635L281.007 9.264L280.991 9.26932L280.966 9.27756L280.942 9.28826C274.023 12.3959 269.176 19.3523 269.176 27.3991C269.176 38.3556 278.101 47.2616 289.076 47.2616C300.052 47.2616 308.976 38.3556 308.976 27.3991V27.3975C308.952 19.343 304.147 12.4209 297.247 9.30485C297.236 9.29834 297.221 9.28947 297.204 9.28039C297.147 9.25026 297.095 9.23603 297.084 9.23309L297.083 9.23266L297.082 9.23257C297.079 9.23165 297.051 9.22447 296.951 9.18444C296.649 9.06111 296.313 9.04437 296.09 9.04769C295.972 9.04946 295.868 9.0574 295.794 9.06493C295.757 9.06871 295.726 9.07246 295.704 9.0754C295.693 9.07687 295.684 9.07814 295.678 9.07913L295.669 9.08038L295.666 9.08083L295.665 9.08107L295.659 9.08209L295.653 9.08319C294.493 9.29645 293.64 10.303 293.64 11.514Z" fill="currentColor"/>
</g>
<defs>
<clipPath id="clip0">
<rect width="397" height="57" fill="currentColor"/>
</clipPath>
</defs>
</svg>
