<?xml version="1.0" encoding="UTF-8"?>
<svg width="91px" height="28px" viewBox="0 0 91 28" version="1.1" xmlns="http://www.w3.org/2000/svg" xmlns:xlink="http://www.w3.org/1999/xlink">
    <!-- Generator: Sketch 60.1 (88133) - https://sketch.com -->
    <title>分组 copy@1x</title>
    <desc>Created with Sketch.</desc>
    <defs>
        <rect id="path-1" x="0" y="0" width="214" height="28"></rect>
    </defs>
    <g id="页面-1" stroke="none" stroke-width="1" fill="none" fill-rule="evenodd">
        <g id="画板备份-19" transform="translate(-40.000000, -16.000000)">
            <g id="顶部导航备份" transform="translate(40.000000, 0.000000)">
                <g id="支付宝" transform="translate(0.000000, 16.000000)">
                    <g id="分组-copy">
                        <mask id="mask-2" fill="white">
                            <use xlink:href="#path-1"></use>
                        </mask>
                        <use id="Mask" fill="#D8D8D8" opacity="0" xlink:href="#path-1"></use>
                        <g id="MaskLayers" mask="url(#mask-2)" fill-rule="nonzero">
                            <g id="logo-白色">
                                <g id="编组">
                                    <path d="M28.1,19 C28.1,19 27.2,18.9 23.1,17.6 C22,17.2 20.5,16.7 18.8,16 C19.8,14.3 20.6,12.3 21.1,10.1 L15.6,10.1 L15.6,8.1 L22.4,8.1 L22.4,7 L15.6,7 L15.6,3.7 L12.8,3.7 C12.3,3.7 12.3,4.2 12.3,4.2 L12.3,7 L5.5,7 L5.5,8.1 L12.4,8.1 L12.4,10.1 L6.7,10.1 L6.7,11.2 L17.7,11.2 C17.3,12.6 16.8,13.9 16.1,15.1 C12.5,13.9 8.7,13 6.4,13.6 C4.9,14 3.9,14.6 3.3,15.3 C0.6,18.5 2.6,23.4 8.1,23.4 C11.4,23.4 14.6,21.6 17.1,18.5 C20.8,20.3 28.1,23.3 28.1,23.3 L28.1,23.5 C28.1,26 26.1,28 23.6,28 L4.5,28 C2,28 0,26 0,23.5 L0,4.5 C0,2 2,0 4.5,0 L23.6,0 C26.1,0 28.1,2 28.1,4.5 L28.1,19 L28.1,19 Z M7.6,21.5 C3.2,21.5 1.9,18.1 4.1,16.2 C4.8,15.6 6.1,15.3 6.8,15.2 C9.4,14.9 11.8,15.9 14.6,17.3 C12.7,19.9 10.1,21.5 7.6,21.5 Z" id="Combined-Shape" fill="#226BF3"></path>
                                    <path d="M69.5,4.4 L77.7,4.4 L77.7,6 L80.6,6 L80.6,4.4 L80.6,4.1 L80.6,4.1 C80.6,3.7 80.3,3.3 79.8,3.3 L75.1,3.3 L75.1,1.8 L72,1.8 L72,3.3 L66.5,3.3 L66.5,3.8 L66.5,4.3 L66.5,6 L69.4,6 L69.5,4.4 L69.5,4.4 Z" id="Fill-10" fill="#333333"></path>
                                    <polygon id="Fill-11" fill="#333333" points="51.8 1.9 48.8 9 51.1 9 51.1 17.4 53.6 17.4 53.6 6.3 52.7 6.3 54.6 1.9"></polygon>
                                    <path d="M80.9,17.1 L80,13.9 C79.9,13.7 79.8,13.6 79.5,13.6 L77.1,13.6 L77.8,16 L74.9,16 L74.9,11.4 L80.5,11.4 L80.5,10.3 L74.9,10.3 L74.9,8.1 L80.5,8.1 L80.5,7 L74.9,7 L72.1,7 L66.5,7 L66.5,8.1 L72.1,8.1 L72.1,10.3 L66.5,10.3 L66.5,11.4 L72.1,11.4 L72.1,16 L66.5,16 L66.5,17.1 L80.9,17.1 Z" id="Fill-12" fill="#333333"></path>
                                    <path d="M57.7,7.4 L55.5,7.4 L57.2,12.7 L59.8,12.7 L58.2,7.7 C58.1,7.5 57.9,7.4 57.7,7.4" id="Fill-13" fill="#333333"></path>
                                    <path d="M63.7,2.1 L61.1,2.1 L61.1,4.8 L54.7,4.8 L54.7,5.9 L61.1,5.9 L61.1,15.7 C61.1,15.9 60.9,16.1 60.7,16.1 L59.4,16.1 L59.4,17.2 L62.8,17.2 C63.3,17.2 63.8,16.7 63.8,16.2 L63.8,16.1 L63.8,5.9 L64.9,5.9 L64.9,4.8 L63.8,4.8 L63.8,2.1 L63.7,2.1 Z" id="Fill-14" fill="#333333"></path>
                                    <path d="M48.4,16.4 C46,15.5 44.1,14.6 42.7,13.7 C44.8,12.1 46.7,10 47.5,7.1 L42.5,7.1 L42.5,5.2 L48.3,5.2 L48.3,4.1 L42.5,4.1 L42.5,1.8 L39.9,1.8 L39.9,1.8 C39.6,1.8 39.4,2 39.4,2.3 L39.4,2.3 L39.4,4 L33.6,4 L33.6,5.1 L39.4,5.1 L39.4,7 L34.5,7 L34.5,8.1 L44.2,8.1 C44.2,8.1 43.7,10.2 41,12.4 C38.6,10.6 37.8,9.2 37.8,9.2 L35.2,9.2 C36.3,11 37.7,12.5 39.4,13.6 C37.9,14.6 36,15.5 33.5,16.2 L33.5,17.5 C33.5,17.5 37.3,16.8 41,14.6 C44.7,16.8 48.4,17.5 48.4,17.5 L48.4,16.4 L48.4,16.4 Z" id="Fill-15" fill="#333333"></path>
                                    <path d="M38.1,21.4 L39,24.1 L37.2,24.1 L38.1,21.4 Z M39.2,24.9 L39.6,26.2 L40.8,26.2 L38.4,19.7 L37.5,19.7 L35.1,26.2 L36.3,26.2 L36.8,24.9 L39.2,24.9 Z" id="Fill-16" fill="#333333"></path>
                                    <polygon id="Fill-17" fill="#333333" points="44.7 19.7 44.7 26.2 48.6 26.2 48.6 25.3 45.9 25.3 45.9 19.7"></polygon>
                                    <polygon id="Fill-18" fill="#333333" points="52.9 26.2 54.1 26.2 54.1 19.7 52.9 19.7"></polygon>
                                    <path d="M61.3,22.8 L60,22.8 L60,20.6 L61.3,20.6 C61.9,20.6 62.3,21.2 62.3,21.7 C62.3,22.2 61.9,22.8 61.3,22.8 M61.3,19.7 L58.8,19.7 L58.8,26.2 L60,26.2 L60,23.7 L61.4,23.7 C62.7,23.7 63.5,22.9 63.5,21.7 C63.5,20.5 62.6,19.7 61.3,19.7" id="Fill-19" fill="#333333"></path>
                                    <path d="M69.2,21.4 L70.1,24.1 L68.3,24.1 L69.2,21.4 Z M70.3,24.9 L70.7,26.2 L72,26.2 L69.6,19.7 L68.7,19.7 L66.3,26.2 L67.5,26.2 L68,24.9 L70.3,24.9 Z" id="Fill-20" fill="#333333"></path>
                                    <polygon id="Fill-21" fill="#333333" points="78.5 19.7 77.2 22.5 75.9 19.7 74.6 19.7 76.6 23.5 76.6 26.2 77.8 26.2 77.8 23.5 77.8 23.5 79.7 19.7"></polygon>
                                    <polygon id="Fill-22" fill="#999999" points="90.5 26.2 91 26.2 91 1.8 90.5 1.8"></polygon>
                                </g>
                            </g>
                        </g>
                    </g>
                </g>
            </g>
        </g>
    </g>
</svg>