<?xml version="1.0" encoding="UTF-8"?>
<svg width="170px" height="48px" viewBox="0 0 170 48" version="1.1" xmlns="http://www.w3.org/2000/svg" xmlns:xlink="http://www.w3.org/1999/xlink">
    <title>QQ开放平台官网_切图/QQ开放平台_标准标志+文字备份</title>
    <g id="视觉稿（20210630）" stroke="none" stroke-width="1" fill="none" fill-rule="evenodd">
        <g id="模块组件" transform="translate(-1869.000000, -1059.000000)">
            <g id="QQ开放平台官网_切图/QQ开放平台_标准标志+文字备份" transform="translate(1869.000000, 1059.924038)">
                <rect id="矩形备份-57" opacity="0" x="0.155393053" y="0.155579525" width="169.689214" height="45.9963437"></rect>
                <g id="编组" transform="translate(8.661178, 8.660310)">
                    <path d="M103.545058,7.17165049 L103.544963,7.80173523 L106.074166,7.80222534 L106.074166,10.163902 L101.182963,10.1637352 L101.182963,11.9687352 L106.074166,11.9688101 L106.074166,23.8745886 L103.747386,23.8745886 L103.746963,14.3247352 L101.182963,14.3247352 L101.183648,16.8537589 C101.183648,20.4368248 99.6187624,23.1000491 97.768987,24.089806 L97.768987,20.2426428 C98.1961389,19.6935344 98.6950299,18.753387 98.6950299,16.097215 L98.6949627,10.1637352 L97.7689627,10.163902 L97.7689627,7.80222534 L100.923963,7.80173523 L100.924026,7.17165049 L103.545058,7.17165049 Z M67.2559193,6.24997661 L67.4908188,6.25402289 C71.0773689,6.37776955 73.9471557,9.32428927 73.9471557,12.9407674 L73.9471557,12.9407674 L73.9471557,17.2644144 L73.9399441,17.5778014 C73.8920422,18.6164203 73.6072677,19.5932347 73.1383519,20.4555132 L73.1383519,20.4555132 L73.3108297,20.60733 C73.9947476,21.1843753 74.6028713,21.4048079 74.9957042,21.4864595 L74.9957042,21.4864595 L74.9957042,24.066165 L74.8253414,24.0463637 C74.5309576,24.0069592 74.1852292,23.9339267 73.8014373,23.8030253 L73.8014373,23.8030253 L73.6424266,23.7459699 C73.0450885,23.5214525 72.2941025,23.1246587 71.5096036,22.4296184 L71.5096036,22.4296184 L71.2890544,22.6037973 C70.1677019,23.4519491 68.7707554,23.955428 67.2559193,23.955428 L67.2559193,23.955428 L66.7476875,23.955428 L66.5127882,23.951382 C62.9262473,23.8276442 60.0566739,20.8813286 60.0566739,17.2644144 L60.0566739,17.2644144 L60.0566739,12.9407674 L60.0607202,12.7058821 C60.1844669,9.11954999 63.1309913,6.24997661 66.7476875,6.24997661 L66.7476875,6.24997661 L67.2559193,6.24997661 Z M51.4370085,6.24997661 L51.6718938,6.25402289 C55.2582259,6.37776955 58.1277993,9.32428927 58.1277993,12.9407674 L58.1277993,12.9407674 L58.1277993,17.2644144 L58.1205878,17.5778014 C58.0726876,18.6164203 57.7879315,19.5932347 57.3192182,20.4555132 L57.3192182,20.4555132 L57.4916922,20.60733 C58.1755797,21.1843753 58.7834977,21.4048079 59.1761249,21.4864595 L59.1761249,21.4864595 L59.1761249,24.066165 L59.005951,24.0463637 C58.7118302,24.0069592 58.3661327,23.9339267 57.9825265,23.8030253 L57.9825265,23.8030253 L57.823469,23.7459699 C57.2259904,23.5214525 56.4751917,23.1246587 55.6906928,22.4296184 L55.6906928,22.4296184 L55.470102,22.6037973 C54.348543,23.4519491 52.9514268,23.955428 51.4370085,23.955428 L51.4370085,23.955428 L50.928331,23.955428 L50.6934457,23.951382 C47.1071136,23.8276442 44.2375402,20.8813286 44.2375402,17.2644144 L44.2375402,17.2644144 L44.2375402,12.9407674 L44.2415865,12.7058821 C44.3653332,9.11954999 47.3118529,6.24997661 50.928331,6.24997661 L50.928331,6.24997661 L51.4370085,6.24997661 Z M94.9470612,7.50894602 L94.9470612,10.163902 L93.4907407,10.162946 L93.4907407,14.445946 L94.9470612,14.4463637 L94.9470612,17.2467435 L93.4907407,17.245946 L93.4912431,23.8748318 L90.7574956,23.8748318 L90.7567407,17.245946 L83.1227407,17.245946 L83.1234301,18.757971 C83.1234301,21.3544413 81.3839384,23.6177503 79.2321291,24.0622898 L79.2321291,20.9794524 C79.9723797,20.5147287 80.5544395,19.5580447 80.5544395,18.5010476 L80.5537407,17.245946 L78.4807407,17.2467435 L78.4807407,14.4463637 L80.5537407,14.445946 L80.5537407,10.162946 L78.7452028,10.163902 L78.7452028,7.50894602 L94.9470612,7.50894602 Z M109.824676,7.16773523 C109.789239,7.38228715 109.74916,7.59426221 109.704637,7.80333639 L114.686753,7.80222534 L114.686753,10.163902 L113.923963,10.1637352 L113.924787,11.1655506 L113.920936,11.5511055 C113.879431,15.2024005 113.711527,16.6836075 113.214691,18.2768445 C113.047197,18.8139343 112.799161,19.3688373 112.47871,19.9124716 C113.223845,20.5507533 113.965737,20.9106826 114.372779,21.1100176 C114.359404,22.0777664 114.345907,23.0455152 114.332654,24.0131424 C113.622008,23.7112841 112.323611,23.0740074 110.985637,21.8087665 C109.88329,22.8813306 108.458556,23.7110286 106.80717,23.9587058 C106.802549,23.0895679 106.797929,22.1631603 106.793308,21.2940224 C107.332516,21.2176952 108.465883,20.7516932 109.397432,19.9706191 L109.370738,19.9342253 C107.851127,17.7676599 107.717107,14.136873 107.708343,12.2389425 L107.70797,11.8331745 L110.018214,11.8331745 C110.016383,13.7368722 110.020368,15.8717105 110.769068,17.6126304 L110.872741,17.8361719 L110.841963,17.7673499 C111.316537,16.2712115 111.520924,14.853823 111.577817,11.5414864 L111.583537,11.1655506 L111.580011,11.1655506 L111.579963,10.1637352 L108.964175,10.1654178 C108.797918,10.5547493 108.614702,10.9245133 108.416522,11.271457 L105.952587,11.271457 C106.616234,9.93200224 107.196227,8.54342437 107.424698,7.16773523 L109.824676,7.16773523 Z M152.999951,15.1103763 L152.999951,17.6177199 L152.993714,17.6171719 L152.998714,21.5821719 L152.999951,21.5823408 L152.999951,23.8745886 L137.119582,23.8745886 L137.119582,21.5823408 L137.124714,21.5821719 L137.119582,17.6177199 L137.119582,15.1103763 L152.999951,15.1103763 Z M133.434379,7.47721057 L133.434379,9.80666546 L126.888912,9.80621057 L126.888912,16.8022106 L133.685587,16.8026904 L133.685587,19.100653 L126.888912,19.1002106 L126.889702,23.8683874 L124.027797,23.8683874 L124.026912,19.1002106 L117.231912,19.100653 L117.231912,16.8026904 L124.026912,16.8022106 L124.026912,9.80621057 L117.483121,9.80666546 L117.483121,7.47721057 L133.434379,7.47721057 Z M150.270714,17.6171719 L139.843714,17.6171719 L139.848714,21.5821719 L150.275714,21.5821719 L150.270714,17.6171719 Z M67.2559193,8.80829223 L66.7476875,8.80829223 L66.5417443,8.81335992 C64.3583512,8.92104625 62.6152123,10.7313468 62.6152123,12.9407674 L62.6152123,12.9407674 L62.6152123,17.2644144 C62.6152123,19.5431022 64.4689996,21.3973352 66.7476875,21.3973352 L66.7476875,21.3973352 L67.2559193,21.3973352 L67.4962743,21.3904047 C68.3712105,21.339819 69.1735977,21.0149358 69.820028,20.5020807 L69.820028,20.5020807 L69.6412047,20.3083367 C68.8580382,19.5016844 67.9766173,19.1171831 67.3555158,18.9359423 L67.3555158,18.9359423 L67.3555158,16.3123431 L67.5003571,16.3415985 C68.4036748,16.5335728 69.9097153,17.0302869 71.2553763,18.3065013 L71.2553763,18.3065013 L71.3128546,18.0538441 C71.3625484,17.7982834 71.3886173,17.5342942 71.3886173,17.2644144 L71.3886173,17.2644144 L71.3886173,12.9407674 L71.3835502,12.7348433 C71.2758762,10.5516406 69.4657721,8.80829223 67.2559193,8.80829223 L67.2559193,8.80829223 Z M51.4370085,8.80829223 L50.928331,8.80829223 L50.7224075,8.81335992 C48.5392175,8.92104625 46.7960787,10.7313468 46.7960787,12.9407674 L46.7960787,12.9407674 L46.7960787,17.2644144 C46.7960787,19.5431022 48.649866,21.3973352 50.928331,21.3973352 L50.928331,21.3973352 L51.4370085,21.3973352 L51.6773035,21.3904091 C52.5520057,21.3398546 53.3540184,21.0151586 54.0004488,20.5023035 L54.0004488,20.5023035 L53.8223253,20.3100049 C53.0417261,19.5090644 52.157054,19.1232627 51.5361594,18.9399529 L51.5361594,18.9399529 L51.5361594,16.3123431 L51.6810358,16.3415985 C52.5845634,16.5335728 54.0907927,17.0302869 55.4362427,18.3065013 L55.4362427,18.3065013 L55.4937209,18.0538441 C55.5434148,17.7982834 55.5694836,17.5342942 55.5694836,17.2644144 L55.5694836,17.2644144 L55.5694836,12.9407674 L55.5644166,12.7348433 C55.4567427,10.5516406 53.6466452,8.80829223 51.4370085,8.80829223 L51.4370085,8.80829223 Z M120.715723,10.6571876 C120.715723,12.1561708 121.386544,15.1293325 121.77576,15.9905669 L119.125667,15.9905669 C118.686721,15.3032087 118.045203,11.6808686 118.06563,10.6571876 L120.715723,10.6571876 Z M133.093034,10.6571876 C133.112761,11.6399214 132.522215,15.0175793 132.086588,15.8943501 L132.032997,15.9905669 L129.382905,15.9905669 C129.755198,15.1667774 130.385142,12.4107143 130.439216,10.8607726 L130.442942,10.6571876 L133.093034,10.6571876 Z M90.7567407,10.162946 L83.1227407,10.162946 L83.1227407,14.445946 L90.7567407,14.445946 L90.7567407,10.162946 Z M142.405224,7.15617186 C142.254207,7.7957445 140.738201,11.0649821 140.317858,11.5683719 L150.272714,11.5681719 L150.270265,9.19942406 L152.993434,9.19942406 L153,14.0816979 L136.909714,14.0815885 L136.909714,11.5684084 C137.416314,11.0377455 139.156535,7.71877692 139.284936,7.15617186 L142.405224,7.15617186 Z" id="形状结合" fill="#000000"></path>
                    <g id="编组-30备份-2" fill="#267FFF" fill-rule="nonzero">
                        <path d="M37.451366,12.8474602 C37.451366,13.6844771 37.22473,14.5059724 36.7953743,15.2252556 L32.0520141,23.171414 L36.9814361,28.0172661 C37.5927664,28.6182203 37.5997354,29.5995079 36.9970019,30.2090334 C36.7048804,30.5044468 36.3061695,30.670762 35.8900906,30.670762 L10.0547247,30.670762 C7.59350365,30.670762 5.57757832,28.7700105 5.40324663,26.3605677 C6.1676559,26.8994975 7.10005056,27.2160079 8.10677074,27.2160079 L8.10677074,27.2160079 L21.1671515,27.2160079 C21.2428765,27.2160079 21.3184473,27.2149146 21.3938441,27.212739 L31.2287934,27.2121442 L27.6891437,23.732449 L31.7072466,16.9997244 L34.835399,11.7695466 C35.217626,11.130381 35.4394284,10.4105611 35.483999,9.67089311 L35.4923723,9.39270602 C35.4923723,9.27721938 35.4881391,9.16271614 35.4798185,9.04934143 C36.6720258,9.89130472 37.451366,11.2786463 37.451366,12.8474602 Z" id="形状结合"></path>
                        <path d="M27.3856016,0 C29.9673951,0 32.0603523,2.08167758 32.0603523,4.64955701 C32.0603523,5.48619683 31.8333843,6.3073363 31.4033789,7.02639764 L24.431427,18.6849983 C23.0269376,21.0336061 20.4825826,22.4728589 17.7351315,22.4728589 L4.67475072,22.4728589 C2.09295719,22.4728589 0,20.3911813 0,17.8233019 C0,16.9866621 0.22696801,16.1655226 0.656973396,15.4464613 L7.62892531,3.78786064 C9.03341471,1.43925279 11.5777697,0 14.3252208,0 L27.3856016,0 Z M27.3856016,3.45861785 L14.3252208,3.45861785 C12.8213533,3.45861785 11.4290427,4.23044592 10.6412145,5.49108123 L10.5972694,5.56295808 L3.62531746,17.2215587 C3.51603489,17.4043026 3.45861785,17.6120297 3.45861785,17.8233019 C3.45861785,18.460903 3.97289257,18.9879574 4.62554797,19.0132881 L4.67475072,19.014241 L17.7351315,19.014241 C19.238999,19.014241 20.6313096,18.242413 21.4191378,16.9817777 L21.4630829,16.9099008 L28.4350349,5.2513002 C28.5443174,5.06855628 28.6017345,4.86082919 28.6017345,4.64955701 C28.6017345,4.01195586 28.0874598,3.48490148 27.4348044,3.4595708 L27.3856016,3.45861785 Z" id="矩形备份-30"></path>
                    </g>
                </g>
            </g>
        </g>
    </g>
</svg>