<svg xmlns="http://www.w3.org/2000/svg" xmlns:xlink="http://www.w3.org/1999/xlink" width="32" height="32" viewBox="0 0 32 32" fill="none">
  <g opacity="1" transform="translate(0 0)  rotate(0 16 16)">
    <path class="path-bg" fill-rule="evenodd" style="fill:#273347" transform="translate(0 0)  rotate(0 16 16)" opacity="1" d="M32,24.31L32,7.69C32,5.65 31.19,3.7 29.75,2.25C28.3,0.81 26.35,0 24.31,0L7.69,0C5.65,0 3.7,0.81 2.25,2.25C0.81,3.7 0,5.65 0,7.69L0,24.31C0,26.35 0.81,28.3 2.25,29.75C3.7,31.19 5.65,32 7.69,32L24.31,32C28.56,32 32,28.56 32,24.31Z "></path>
    <g opacity="1" transform="translate(6.185384615384618 4.854692659091938)  rotate(0 9.814615384615387 10.910565497655234)">
      <g opacity="1" transform="translate(0 0)  rotate(0 9.814615384615387 10.910565497655234)">
        <g opacity="1" transform="translate(0 0)  rotate(0 9.814615384615387 10.910565497655234)">
          <path id="path-233" fill-rule="evenodd" style="fill:#FFFFFF" transform="translate(0 0)  rotate(0 9.814615384615387 10.910565497655236)" opacity="1" d="M13.17 0.48L19.47 12.32C19.68 12.72 19.68 13.2 19.47 13.6L15.48 21.1C15.24 21.54 14.78 21.82 14.27 21.82L5.36 21.82C4.85 21.82 4.39 21.54 4.15 21.1L0.16 13.6C-0.05 13.2 -0.05 12.72 0.16 12.32L6.46 0.48C6.7 0.04 7.25 -0.13 7.69 0.11C7.85 0.19 7.98 0.32 8.06 0.48L9.81 3.77L11.57 0.48C11.8 0.04 12.35 -0.13 12.79 0.11C12.95 0.19 13.08 0.32 13.17 0.48Z M12.3736 8.58463L11.0836 11.0046L11.6136 11.9946C11.7736 12.2946 11.8536 12.6246 11.8536 12.9546L11.8636 12.9546L11.8636 12.9946C11.8436 14.1146 10.9336 15.0046 9.81356 15.0046C8.68356 15.0046 7.77356 14.0946 7.77356 12.9646L7.77356 12.9546C7.77356 12.8246 7.78356 12.6946 7.81356 12.5546L7.81356 12.5246C7.86356 12.3146 7.93356 12.1246 8.03356 11.9546L8.03356 11.9446L9.81356 8.60463L9.81356 8.61463L11.1036 6.19463L11.9636 4.56463C12.0136 4.48463 12.0736 4.42463 12.1536 4.37463C12.3736 4.26463 12.6536 4.34463 12.7636 4.56463L17.0636 12.6346C17.1736 12.8346 17.1736 13.0746 17.0636 13.2746L13.9136 19.1846C13.7936 19.4046 13.5636 19.5446 13.3136 19.5446L6.31356 19.5446C6.06356 19.5446 5.83356 19.4046 5.71356 19.1846L2.56356 13.2746C2.45356 13.0746 2.45356 12.8346 2.56356 12.6346L6.86356 4.56463C6.90356 4.48463 6.96356 4.42463 7.04356 4.37463C7.27356 4.26463 7.54356 4.34463 7.66356 4.56463L8.52356 6.19463L6.00356 10.9246C5.88356 11.1546 5.78356 11.3846 5.71356 11.6246L5.70356 11.6546L5.66356 11.7646C5.55356 12.1446 5.49356 12.5446 5.49356 12.9646C5.49356 15.3446 7.43356 17.2846 9.81356 17.2846C12.2036 17.2846 14.1336 15.3446 14.1336 12.9646C14.1336 12.1846 13.9336 11.4546 13.5736 10.8346L12.3736 8.58463Z "></path>
        </g>
      </g>
    </g>
  </g>
</svg>