<svg xmlns="http://www.w3.org/2000/svg" width="126" height="28" viewBox="0 0 126 28">
    <g fill="none" fill-rule="evenodd">
        <g>
            <path fill="#000" d="M79.897 4.59v18.511h1.718v1.934h-3.651V14.672H73.34v10.59h-1.933v-10.59h-4.19v-1.916h4.19V6.525H67.75V4.59h12.147zm30.964-.745v4.102h2.773v1.758h-2.773v2.84h1.027l1.795 4.21c.034.078-.022.155-.097.155h-1.748l-.977-2.296v10.622h-1.934v-9.42c-.73 2.038-1.892 4.117-3.23 5.943-.066.09-.198.04-.198-.06v-3.116c1.881-3.087 3.011-5.882 3.333-8.878h-2.805V7.947h2.9V3.845h1.934zm-45.145 6.322v11.427l3.26-2.47c.069-.053.174-.014.174.082v1.99l-5.332 4.04-1.061-1.4 1.038-.787V12.101h-2.596v-1.934h4.517zm28.939-6.272v3.27l9.068.001v1.961h-3.088c-.842 3.94-2.663 7.355-5.418 10.069 2.321 1.759 5.175 3.068 8.502 3.87l.004.004-.004.003v2.05l-.008.043c-.017.04-.056.067-.101.067-.008 0-.017-.001-.025-.003-3.745-.855-6.967-2.298-9.616-4.299-.127-.094-.255-.19-.384-.293-.172.136-.342.265-.511.387-2.626 1.953-5.806 3.363-9.494 4.205-.007.002-.017.003-.024.003-.06 0-.11-.049-.11-.11v-2.057c3.33-.803 6.183-2.112 8.505-3.872-1.572-1.549-2.838-3.31-3.793-5.269-.72-1.473-1.262-3.107-1.624-4.798h-3.088v-1.96l9.067-.002v-3.27h2.142zm-49.01.74v20.524h-3.128l-.482-1.581c-.045-.121.021-.177.107-.177h1.75v-5.465h-2.464c-.01 1.778-.087 4.228-.675 7.181H38.99c-.105 0-.165-.054-.109-.252.532-2.15.79-4.577.79-7.772V4.634h5.975zm7.647-.897c.087 0 .158.027.14.16-.156 1.135-.328 2.149-.526 3.063h2.115l.694-2.36h1.497c.075 0 .137.045.103.162l-.645 2.198h1.722v1.582h-5.88c-.17.587-.357 1.13-.564 1.635h6.876v1.582h-2.36c1.121 1.591 2.32 2.326 2.797 2.618v1.81c0 .09-.072.188-.358.026-.754-.427-1.581-.992-2.398-1.752l-.072 3.076h2.183v7.618h-5.577l-.481-1.581c-.045-.122.02-.177.106-.177h4.019V19.12h-8.918c-.062 0-.107-.046-.107-.106l.166-3h1.653c.064 0 .108.046.108.108l-.079 1.416h5.169l.055-2.369h-6.547c-.562.416-1.117.75-1.637 1.045-.286.162-.358.065-.358-.026v-1.81c.478-.292 1.677-1.025 2.8-2.618h-2.784v-1.582h3.705c.25-.547.485-1.135.644-1.635h-3.918V6.961h1.678l-.645-2.198c-.034-.117.027-.162.103-.162h1.497l.693 2.36H51c.233-.973.416-2.014.589-3.223zm67.344.107v8.234h4.86v12.587h-12.04v-1.864h9.93v-3.638h-9.157V17.3h9.157v-3.357H113.7v-1.864h4.826V3.845h2.11zm-64.85 16.5v1.758H46.2v-1.758h9.584zM98.438 9.127H88.73c.654 2.742 1.85 5.206 3.536 7.248.413.496.851.974 1.316 1.422.176-.17.351-.346.526-.528 2.11-2.218 3.577-4.988 4.33-8.142zm-54.548 3.02H41.43v4.207h2.461v-4.206zm10.421-.387h-3.13c-.402.71-.834 1.312-1.282 1.828h5.754c-.468-.532-.921-1.136-1.342-1.828zm23.652-5.235H73.34v6.231h4.624V6.525zM43.89 6.392H41.43v4.174h2.461V6.392zm71.797-.98l1.593 4.808c.024.071-.03.144-.104.144h-2.07l-1.593-4.804c-.024-.073.03-.147.106-.147h2.068zm9.855 0c.076 0 .13.075.106.148l-1.592 4.804h-2.07c-.075 0-.128-.073-.105-.144l1.593-4.807zm-61.955-1.21s2.628 4.01 2.666 4.07c.041.063.003.164-.09.164H64.05l-2.668-4.075c-.045-.068.013-.16.093-.16z" transform="translate(-88 -378) translate(88 378)"/>
            <path fill="#1E6FFF" d="M25.763 0H5.313c-.282 0-.523.203-.572.48L.009 27.317c-.063.356.211.682.573.682h11.273l.893-.277h5.235l.732.277H27.4c.282 0 .524-.202.573-.48l3.892-22.073L25.764 0z" transform="translate(-88 -378) translate(88 378)"/>
            <path fill="#00DCFF" d="M25.496 5.445h6.368L25.764 0l-.84 4.762c-.063.356.21.683.572.683" transform="translate(-88 -378) translate(88 378)"/>
            <path fill="#FFF" d="M16.593 1.149L15.449 7.657 4.293 7.676 9.14 12.921 14.52 12.921 11.855 27.998 18.715 27.998 21.383 12.921 29.483 12.921 29.764 12.915z" transform="translate(-88 -378) translate(88 378)"/>
        </g>
    </g>
</svg>
