<svg width="40" height="40" viewBox="0 0 40 40" fill="none" xmlns="http://www.w3.org/2000/svg">
  <path d="M39.615 39.615v-.384H.77V.77H39.23v38.846h.384v-.384.384H40V0H0v40h40v-.385h-.385z" fill="currentColor"></path>
  <path d="M17.75 6.762l-.936-1.091-.882.817L5.69 6.46l.53.633a.278.278 0 0 0 .149.05 555.7 555.7 0 0 1 3.805-.078c-.009.02-.014-.009-.017.016C9 9.973 7.715 12.642 4.752 15.003l-.009.012a.09.09 0 0 0-.065.085c0 .05.04.09.09.09.02.006.04 0 .063-.014 2.612-1.688 4.085-3.605 4.269-3.856v6.75c0 .125.133.176.229.136.494-.565.805-1.102.845-1.727.523-.017 2.866-.014 4.19-.05.177.157.254.135.38.663 0 .09.046.125.14.102a.144.144 0 0 0 .036-.014c.87-.543.99-.992.99-2.62l.002-2.954c0-.037.009-.071.026-.1l.285-.602c.043-.059.046-.104-.005-.135l-1.004-.588c-.06-.043-.136-.026-.178.042l-.249.563a.125.125 0 0 1-.107.065l-4.34-.006-.61-.246c.76-.947 1.035-1.501 1.495-2.253.051-.082.066-.138.094-.147.09-.028.127-.18.045-.246l-.037-.034c-.373-.215-.69-.469-.924-.83l-.026-.026h.009c1.535-.029 7.231-.11 7.231-.11.133.002.172-.063.133-.19zm-7.545 4.517l.158-.099.608-.014 2.898-.002.794.005c.073 0 .133.07.133.161l.005 3.8v.01c.009.278-.062.643-.322.903l-.096.067-4.178.012v-4.843zM26.723 7.613c-.269-.215-.721-.523-1.428-.834-.062-.028-.093.023-.07.07.282.26.503.792.664 1.595.093.305.28.367.565.18.19-.152.23-.234.286-.316.206-.3.214-.511-.017-.695zM25.629 12.1c-.068-.03-.102.025-.077.075.303.28.54.851.713 1.713.099.331.302.393.607.193.204-.164.247-.252.306-.34.223-.322.235-.55-.017-.746-.286-.232-.775-.562-1.532-.896zM28.698 12.096c-.067-.025-.098.028-.073.08.314.268.577.827.789 1.681.113.325.32.382.616.167.195-.172.235-.263.291-.353.21-.334.21-.56-.048-.747-.3-.217-.8-.528-1.575-.828zM24.238 12.04c-.215.52-.605.887-1.371 1.413-.2.142-.252.393.02.574 0 0 .35.15.508.19.399.098.571-.018.687-.32.136-.345.263-1.849.263-1.849a.054.054 0 0 0-.053-.053.057.057 0 0 0-.054.045z" fill="currentColor"></path>
  <path d="M34.194 17.066l-1.035-1.083-.788.82-3.401-.014h-.286v-1.221c2.335-.023 4.605-.043 4.605-.043a.143.143 0 0 0 .08-.022.074.074 0 0 0 .028-.057.08.08 0 0 0-.017-.045l-.003-.006-.811-.834-.656.64-3.228-.01v-1.396l.116-.136c.045-.045.045-.079 0-.101l-1.128-.274v1.902l-4.817-.003.367.399a.233.233 0 0 0 .105.037c.087-.006 2.196-.026 4.345-.046v1.213l-5.708-.008.368.398a.232.232 0 0 0 .104.037c.19-.011 11.664-.014 11.664-.014a.16.16 0 0 0 .056-.009.07.07 0 0 0 .057-.07.051.051 0 0 0-.017-.054zM33.097 12.698c-.35-.178-.933-.42-1.798-.604-.076-.017-.102.048-.062.096.376.229.749.774 1.116 1.636.176.323.402.348.676.071.178-.218.203-.316.246-.421.164-.387.127-.625-.178-.778zM33.806 11.81v-.002l-.808-.814-.636.585-3.68-.014c.002-.009.002-1.004.002-1.004 2.038-.011 3.986-.025 3.986-.025a.105.105 0 0 0 .057-.011.06.06 0 0 0 .022-.015.074.074 0 0 0 .029-.056.058.058 0 0 0-.017-.043l-.003-.008-.814-.783-.566.577h-2.694l-.003-.962c2.027-.01 4.159.012 4.159.012.079 0 .155-.105.104-.175l-.07-.09V6.834l.234-.415c.034-.06.02-.105-.017-.13v-.003l-.362-.184-.562-.313-.308.537c-6.262-.009-6.284-.009-7.491-.014l-1.032-.292.006 3.763.002.006-.003.01c0 .052.043.094.094.094.025 0 .05-.011.068-.028.198-.136.57-.444.76-.639.124.003 1.504.011 3.395 0v.955l-4.133-.028.368.365a.233.233 0 0 0 .104.037c.088-.006 1.668.014 3.661.005v.995l-5.326-.034.368.362a.233.233 0 0 0 .104.037c.08-.006.08-.011 10.915.02.011 0 .023 0 .034-.003l.011.003c.04 0 .074-.034.074-.074a.088.088 0 0 0-.032-.056zm-5.125-5.17h3.15V8.92h-2.327c.367-.102 1.36-.602 1.654-1.213.073-.07.065-.127-.006-.2l-.695-.62c-.029-.034-.048-.042-.074-.036-.028.008-.037.04-.05.087-.207.84-.385 1.3-.857 1.979h-.792V6.64h-.003zM27.664 8.92h-3.285V6.64c.605.003 1.908-.002 3.282 0V8.92h.003zM11.432 24.266c.178.418.497.523.83.17.111-.116.196-.264.264-.388.251-.455.234-.755-.125-.98-.412-.264-1.009-.736-2.06-1.07-.094-.028-.13.049-.09.11.437.329.83 1.047 1.18 2.158z" fill="currentColor"></path>
  <path d="M17.645 32.664h-.005c-.006-.003-.012-.003-.02-.005-2.05-.467-3.842-.877-5.332-2.055.029-.034.06-.065.088-.1.961-1.122 1.812-3.021 2.185-4.469.028-.11.181-.223.212-.234.107-.034.153-.147.057-.226l-.043-.043c-.316-.062-.653-.164-.907-.314 1.778-.045 3.494-.093 3.494-.093.121 0 .16-.06.121-.178l-.884-1.026-.772.854-9.886.02.436.48c.04.031.113.05.141.048.073-.003 1.02.006 2.298 0 .52 2.386.933 3.796 2.092 5.272-1.102 1.179-2.68 2.222-5.015 3.172l-.008.014a.109.109 0 0 0-.08.102c0 .06.049.107.108.107a.09.09 0 0 0 .076-.017c2.7-.74 4.292-1.5 5.558-2.637.017.017.031.034.048.05.817.863 3.163 1.98 4.235 2.471.014.006.028.014.045.02.008.003.02.003.028.003a.12.12 0 0 0 .077-.028c.014-.02.03-.037.042-.06.271-.61.89-.808 1.331-.842.082-.006.238-.054.314-.037l.003-.003v-.002a.126.126 0 0 0 .082-.11c.006-.069-.051-.128-.119-.134zM9.16 25.323c.379-.003.777-.009 1.187-.017.577-.011 1.804-.042 3.073-.073-.373 1.764-.882 3.299-1.905 4.655-.933-1.009-1.725-2.442-2.355-4.565zM33.668 23.692l-.04-.04c-.31-.107-.735-.387-.983-.576l-.029-.029h-.002a.128.128 0 0 0-.12-.076c-.07 0-.13.06-.13.13v.006c-.002.005-.002.011-.002.02-.396 1.249-.693 1.91-1.552 3.355l-.008.014c-.026.045-.06.06-.06.108 0 .056.045.101.102.101.023.006.045 0 .07-.017 1.103-.876 1.759-1.69 2.502-2.595a.902.902 0 0 1 .201-.186c.099-.037.141-.142.051-.215zM27.534 25.965c.067.435.345.607.743.353.133-.085.141-.133.235-.238.345-.37.384-1.108-.198-1.687a17.16 17.16 0 0 0-1.56-1.374c-.08-.048-.136.014-.11.082.333.413.819 1.736.89 2.864zM26.835 28.984c.224-.368.167-.647-.053-.907-.26-.309-.78-.724-1.634-1.035l-.003-1.49c.577.003 1.218.003 1.905.003.011 0 .023 0 .034-.003l.012.003c.039 0 .073-.034.073-.073a.074.074 0 0 0-.028-.057v-.003l-.817-.814-.642.588-.537-.011-.003-.942.017-1.648.139-.158c.053-.054.053-.093 0-.119l-1.1-.325V25.173l-.161-.002-2.197-.034.37.364a.233.233 0 0 0 .105.037c.043-.003.778.003 1.744.009-.387 1.707-.865 3.53-2.47 5.857v.017a.11.11 0 0 0-.012.135.117.117 0 0 0 .162.034.085.085 0 0 0 .056-.059c1.004-1.114 1.976-2.358 2.4-3.698v6.398c0 .13.141.183.246.144.529-.602.673-1.17.715-1.835v-.379l-.011-4.81c.3.316.56.884.78 1.7.133.351.39.448.679.168.096-.088.172-.133.231-.235z" fill="currentColor"></path>
  <path d="M33.441 26.931l-.94-.565c-.066-.048-.154-.028-.199.048l-.28.537a.146.146 0 0 1-.118.074l-1.583-.003v-4.399l.2-.164c.077-.053.077-.096 0-.124l-1.167-.337v5.021l-2.663-.003.291.373 1.563-.017 3.183-.002.156.005c.082 0 .147.08.15.178l.003 2.409a.157.157 0 0 1-.06.017l-5.212-.006.29.373 1.564-.017 3.18-.003.156.006c.028 0 .056.011.079.028l.003 1.411v.011c.008.306-.071.713-.36 1.001l-.107.076-5.125.014.32.396c.585-.017 3.301-.017 4.78-.056.198.175.282.15.424.735 0 .099.05.138.155.113a.132.132 0 0 0 .043-.017c.97-.602.927-1.188.927-2.994l.003-3.279c0-.04.008-.08.028-.11l.32-.58c.047-.062.053-.113-.004-.15z" fill="currentColor"></path>
</svg>